<?xml version="1.0" encoding="UTF-8" standalone="no"?>
<svg
   viewBox="0 0 512 512"
   width="512"
   height="512"
   version="1.1"
   id="svg11"
   sodipodi:docname="icon.svg"
   inkscape:version="1.4.2 (ebf0e940, 2025-05-08)"
   xmlns:inkscape="http://www.inkscape.org/namespaces/inkscape"
   xmlns:sodipodi="http://sodipodi.sourceforge.net/DTD/sodipodi-0.dtd"
   xmlns="http://www.w3.org/2000/svg"
   xmlns:svg="http://www.w3.org/2000/svg">
  <sodipodi:namedview
     id="namedview11"
     pagecolor="#ffffff"
     bordercolor="#000000"
     borderopacity="0.25"
     inkscape:showpageshadow="2"
     inkscape:pageopacity="0.0"
     inkscape:pagecheckerboard="0"
     inkscape:deskcolor="#d1d1d1"
     inkscape:zoom="1.08"
     inkscape:cx="438.42593"
     inkscape:cy="144.90741"
     inkscape:window-width="1936"
     inkscape:window-height="1082"
     inkscape:window-x="0"
     inkscape:window-y="31"
     inkscape:window-maximized="0"
     inkscape:current-layer="layer2" />
  <defs
     id="defs4"><linearGradient
   id="bg"
   x1="0"
   y1="0"
   x2="1"
   y2="1">
  <stop
     offset="0%"
     stop-color="#0d4d71"
     id="stop1" />
  <stop
     offset="100%"
     stop-color="#0a2f46"
     id="stop2" />
</linearGradient>
<linearGradient
   id="body"
   x1="0"
   y1="0"
   x2="0"
   y2="1">
  <stop
     offset="0%"
     stop-color="#1db8c6"
     id="stop3" />
  <stop
     offset="100%"
     stop-color="#0ba3b1"
     id="stop4" />
</linearGradient>

	
	
	
	
</defs>
  <!-- Cloud outline -->
  <!-- Octopus body -->
  <!-- Tentacles -->
  <g
     inkscape:groupmode="layer"
     id="layer1"
     inkscape:label="Layer 1">
    <rect
       width="512"
       height="512"
       fill="url(#bg)"
       rx="64"
       ry="64"
       id="rect4" />
  </g>
  <g
     inkscape:groupmode="layer"
     id="layer2"
     inkscape:label="Layer 2">
    <path
       d="m 239.01266,61.198581 c 51.30519,-26.610806 105.35138,7.672129 120.13427,48.652509 16.07011,44.54879 -1.617,84.75436 -32.75765,117.28061 -2.81116,2.9362 -5.1339,6.32903 -6.71881,10.07228 -13.20701,31.19198 34.59951,49.42372 43.96745,39.18836 27.43505,-29.97535 59.67217,-76.58053 86.45174,-69.61051 27.32027,7.11075 41.16749,23.57776 39.29625,37.79925 -1.27086,15.51103 -13.54043,24.90452 -28.81725,12.7245 -8.91796,-7.11017 -17.80398,-15.55649 -24.70051,-7.11076 -25.82327,31.62413 -46.59413,64.37101 -77.844,69.61049 -16.3558,2.6325 -30.89853,-1.12065 -44.49713,-8.19935 -2.2019,-1.14621 -4.53883,1.24024 -3.33152,3.40929 33.58001,60.3301 33.26788,107.68678 -15.4196,136.52611 -36.30227,18.33822 -45.28424,-20.39663 -29.56575,-29.56577 40.11583,-23.40091 28.84281,-51.39613 -1.65393,-102.94212 -0.92241,-1.55908 -3.30038,-0.94743 -3.36465,0.86296 -3.04011,85.65192 -43.64825,136.78033 -99.02291,140.25267 -22.16677,1.38998 -27.50739,-31.43701 -11.60175,-40.04475 46.54637,-25.18981 73.35136,-22.64228 69.14062,-118.21719 -0.15281,-3.46848 -3.92932,-5.54674 -6.9422,-3.82158 -23.73757,13.59199 -49.38129,21.67679 -77.54268,22.48828 -27.60642,2.12352 -43.257683,12.84929 -38.360624,38.36062 4.303884,15.71852 30.688494,28.81725 16.654124,47.71688 -11.22749,10.7285 -26.866018,13.76562 -38.173505,0 -30.127119,-36.6765 -31.624127,-73.16589 4.116739,-111.52651 20.094096,-21.56698 93.867806,-13.72103 110.078886,-30.92826 1.85945,-1.97372 -0.0831,-5.14296 -2.71269,-4.48072 -45.71957,11.51441 -63.2906,-10.23989 -89.402179,-21.85127 -14.380575,-6.39478 -26.146703,1.09404 -27.694503,12.72451 0.290284,25.87793 -14.601027,41.55337 -33.682509,24.32625 -20.44403,-18.45729 -13.78482,-47.28902 4.116765,-65.49378 25.876965,-26.31516 54.474354,-17.82435 90.194266,2.99402 30.50138,17.77687 69.98475,8.79488 66.99076,-13.84725 -4.83547,-36.56813 1.75227,-116.129555 42.66448,-137.349769 z"
       id="path1"
       style="stroke-width:0.25524;fill:#00ffff" />
    <g
       id="g2"
       transform="matrix(0.25523994,0,0,0.25523994,7.651537,38.380615)"
       style="fill:#000000">
		<path
   fill="#ffffff"
   d="m 987.0703,495.0731 c -12.9601,0 -24.8177,-8.6587 -28.3159,-21.7764 -13.6818,-51.3122 -27.6844,-56.2193 -27.8176,-56.2365 -7.6492,-1.0109 -28.9201,20.3173 -40.5629,40.7262 -8.0229,14.067 -25.9346,18.9698 -40.0016,10.9426 -14.0684,-8.0244 -18.9684,-25.9346 -10.9426,-40.0016 7.3314,-12.8542 46.5583,-76.6354 99.0461,-69.831 52.2802,6.7758 70.8491,76.4063 76.949,99.2881 4.1726,15.6493 -5.129,31.7181 -20.7797,35.8906 -2.5288,0.6758 -5.0719,0.998 -7.5748,0.998 z"
   id="path2"
   style="fill:#000000" />

	</g>
    <g
       id="g3"
       transform="matrix(0.25523994,0,0,0.25523994,7.651537,38.380615)"
       style="fill:#000000">
		<path
   fill="#ffffff"
   d="m 1224.5941,595.7501 c -15.244,0 -28.1168,-11.7932 -29.2194,-27.2376 -4.2471,-59.4468 -17.8931,-68.6196 -18.0305,-68.6855 -6.2632,-1.104 -26.9141,13.2938 -41.2445,31.141 -10.1293,12.6065 -28.5721,14.6641 -41.1958,4.5735 -12.6294,-10.0949 -14.7314,-28.4791 -4.668,-41.1342 8.8405,-11.113 55.4288,-65.7802 104.5316,-50.5776 51.6429,15.9901 57.2617,94.6544 59.1089,120.5046 1.1542,16.1547 -11.0055,30.1859 -27.1603,31.34 -0.713,0.05 -1.4203,0.0758 -2.122,0.0758 z"
   id="path3"
   style="fill:#000000" />

	</g>
    <g
       id="g4"
       transform="matrix(0.25523994,0,0,0.25523994,7.651537,38.380615)"
       style="fill:#000000">
		<path
   fill="#ffffff"
   d="m 1021.602,724.4637 c -19.1589,0 -37.1808,-3.627 -53.9684,-10.8868 -49.0426,-21.2122 -67.4712,-65.0098 -69.4114,-69.9341 -9.7383,-31.1539 37.1822,-57.5467 54.5698,-21.4957 l -0.1088,-0.2706 c 0.0759,0.1833 7.8297,18.3699 26.0993,31.0966 23.6894,16.5013 55.3917,17.0296 94.2277,1.5536 15.0493,-5.9911 32.1033,1.3445 38.0972,16.391 5.9939,15.045 -1.3431,32.1018 -16.3895,38.0957 -25.8489,10.2969 -50.2856,15.4503 -73.1159,15.4503 z"
   id="path4"
   style="fill:#000000" />

	</g>
  </g>
</svg>
